<svg width="75" height="58" viewBox="0 0 75 58" fill="none" xmlns="http://www.w3.org/2000/svg">
<path d="M69.8864 0H5.11364C2.21591 0 0 2.21765 0 5.11765V52.8824C0 55.7824 2.21591 58 5.11364 58H69.8864C72.7841 58 75 55.7824 75 52.8824V5.11765C75 2.21765 72.7841 0 69.8864 0ZM69.8864 49.3L56.4204 35.8235C55.3977 34.8 53.8636 34.8 52.8409 35.8235C51.8182 36.8471 51.8182 38.3823 52.8409 39.4058L66.3069 52.8824H8.69314L22.1591 39.4058C23.1818 38.3823 23.1818 36.8471 22.1591 35.8235C21.1364 34.8 19.6023 34.8 18.5796 35.8235L5.11364 49.3V16.547L35.7955 39.7471C36.3068 40.0883 36.8182 40.2588 37.3296 40.2588C37.841 40.2588 38.3523 40.0883 38.8636 39.7471L69.8864 16.547V49.3ZM69.8864 5.11765V10.0647L37.3296 34.2882L5.11364 10.0647V5.11765H69.8864Z" fill="#D7D9DF"/>
</svg>
