<svg width="57" height="22" viewBox="0 0 57 22" fill="none" xmlns="http://www.w3.org/2000/svg">
<path d="M27.7255 0L22.0516 17.0732H17.7404L13.9247 5.51219L9.98515 17.0732H5.69872L0 0H4.16254L8.07731 12L12.1655 0H15.8821L19.8464 12.0976L23.8851 0H27.7255Z" fill="#141517"/>
<path d="M34.0783 3.7561C36.143 3.7561 37.7288 4.2439 38.8355 5.21951C39.9422 6.17886 40.4955 7.63414 40.4955 9.58536V17.0732H36.8781V15.439C36.1513 16.6585 34.7968 17.2683 32.8147 17.2683C31.7905 17.2683 30.8986 17.0976 30.1387 16.7561C29.3954 16.4146 28.8256 15.9431 28.4291 15.3415C28.0327 14.7398 27.8345 14.0569 27.8345 13.2927C27.8345 12.0732 28.297 11.1138 29.222 10.4146C30.1635 9.71545 31.6088 9.36585 33.558 9.36585H36.6303C36.6303 8.53658 36.3743 7.90244 35.8622 7.46342C35.3502 7.00813 34.5821 6.78049 33.558 6.78049C32.8477 6.78049 32.1457 6.89431 31.4519 7.12195C30.7747 7.33333 30.1966 7.62602 29.7175 8L28.33 5.34146C29.0568 4.8374 29.924 4.44715 30.9316 4.17073C31.9557 3.89431 33.0046 3.7561 34.0783 3.7561ZM33.781 14.7073C34.4417 14.7073 35.0281 14.561 35.5401 14.2683C36.0522 13.9593 36.4156 13.5122 36.6303 12.9268V11.5854H33.9792C32.3935 11.5854 31.6006 12.0976 31.6006 13.122C31.6006 13.6098 31.7905 14 32.1705 14.2927C32.5669 14.5691 33.1037 14.7073 33.781 14.7073Z" fill="#141517"/>
<path d="M56.9827 3.95122L50.9619 17.878C50.3507 19.3902 49.5909 20.4553 48.6824 21.0732C47.7904 21.6911 46.7085 22 45.4366 22C44.7429 22 44.0574 21.8943 43.3801 21.6829C42.7029 21.4715 42.1495 21.1789 41.7201 20.8049L43.1324 18.0976C43.4297 18.3577 43.7683 18.561 44.1482 18.7073C44.5447 18.8537 44.9328 18.9268 45.3127 18.9268C45.8413 18.9268 46.2708 18.7967 46.6011 18.5366C46.9315 18.2927 47.2288 17.878 47.4931 17.2927L47.5427 17.1707L41.7696 3.95122H45.7587L49.5001 12.8537L53.2662 3.95122H56.9827Z" fill="#141517"/>
<path d="M57 3.9502L50.9791 17.877C50.368 19.3892 49.6081 20.4543 48.6997 21.0721C47.8077 21.69 46.7257 21.999 45.4539 21.999C44.7601 21.999 44.0746 21.8933 43.3974 21.6819C42.7201 21.4705 42.1668 21.1778 41.7373 20.8039L43.1496 18.0965C43.4469 18.3567 43.7855 18.5599 44.1655 18.7063C44.5619 18.8526 44.9501 18.9258 45.33 18.9258C45.8586 18.9258 46.288 18.7957 46.6184 18.5356C46.9487 18.2917 47.2461 17.877 47.5104 17.2917L47.5599 17.1697L49.5173 12.8526L53.2834 3.9502H57Z" fill="#FE7865"/>
</svg>
