<svg width="44" height="17" viewBox="0 0 44 17" fill="none" xmlns="http://www.w3.org/2000/svg">
<path d="M21.4021 0L17.0223 13.1929H13.6943L10.7489 4.25942L7.70783 13.1929H4.39901L0 0H3.21319L6.23512 9.27273L9.39093 0H12.2599L15.32 9.34811L18.4376 0H21.4021Z" fill="#141517"/>
<path d="M26.3061 2.90244C27.8999 2.90244 29.124 3.27938 29.9783 4.03326C30.8326 4.77458 31.2597 5.89911 31.2597 7.40687V13.1929H28.4673V11.9302C27.9063 12.8725 26.8607 13.3437 25.3306 13.3437C24.5401 13.3437 23.8515 13.2118 23.265 12.9479C22.6912 12.684 22.2513 12.3197 21.9453 11.8548C21.6393 11.3899 21.4863 10.8622 21.4863 10.2716C21.4863 9.32927 21.8433 8.58795 22.5573 8.04767C23.2841 7.50739 24.3998 7.23725 25.9044 7.23725H28.276C28.276 6.59645 28.0784 6.10643 27.6831 5.76718C27.2879 5.41537 26.6949 5.23947 25.9044 5.23947C25.3561 5.23947 24.8142 5.32742 24.2787 5.50332C23.7559 5.66667 23.3096 5.89283 22.9399 6.18182L21.8688 4.12749C22.4298 3.73799 23.0992 3.43644 23.877 3.22284C24.6676 3.00924 25.4773 2.90244 26.3061 2.90244ZM26.0765 11.3647C26.5866 11.3647 27.0392 11.2517 27.4345 11.0255C27.8298 10.7868 28.1103 10.4412 28.276 9.98891V8.95233H26.2295C25.0055 8.95233 24.3934 9.34812 24.3934 10.1397C24.3934 10.5166 24.5401 10.8182 24.8333 11.0443C25.1394 11.2579 25.5538 11.3647 26.0765 11.3647Z" fill="#141517"/>
<path d="M43.9867 3.05322L39.339 13.8149C38.8672 14.9834 38.2807 15.8064 37.5794 16.2838C36.8909 16.7613 36.0557 17 35.0739 17C34.5384 17 34.0092 16.9183 33.4864 16.755C32.9636 16.5916 32.5365 16.3655 32.205 16.0765L33.2952 13.9845C33.5247 14.1855 33.7861 14.3426 34.0793 14.4557C34.3853 14.5687 34.685 14.6253 34.9783 14.6253C35.3863 14.6253 35.7178 14.5248 35.9728 14.3237C36.2278 14.1353 36.4573 13.8149 36.6614 13.3625L36.6996 13.2683L32.2432 3.05322H35.3225L38.2106 9.93237L41.1177 3.05322H43.9867Z" fill="#141517"/>
<path d="M44 3.05237L39.3523 13.814C38.8805 14.9825 38.294 15.8055 37.5927 16.283C36.9042 16.7604 36.069 16.9992 35.0872 16.9992C34.5516 16.9992 34.0225 16.9175 33.4997 16.7541C32.9769 16.5908 32.5498 16.3646 32.2183 16.0756L33.3084 13.9836C33.538 14.1847 33.7994 14.3417 34.0926 14.4548C34.3986 14.5679 34.6983 14.6244 34.9916 14.6244C35.3996 14.6244 35.7311 14.5239 35.9861 14.3229C36.2411 14.1344 36.4706 13.814 36.6747 13.3617L36.7129 13.2674L38.2239 9.93153L41.131 3.05237H44Z" fill="#FE7865"/>
</svg>
